PathFileType	4	(X/Y/Z)	RBDS020\RBDS020runT25.trc
DataRate	CameraRate	NumFrames	NumMarkers	Units	OrigDataRate	OrigDataStartFrame	OrigNumFrames
150.000000	150.000000	5	33	mm	150.000000	1687	4500
Frame#	Time	L.ASIS			L.Heel.Bottom			L.Heel.Lateral			L.Heel.Top			L.Iliac.Crest			L.MT1			L.MT5			L.PSIS			L.Shank.Bottom.Lateral			L.Shank.Bottom.Medial			L.Shank.Top.Lateral			L.Shank.Top.Medial			L.Thigh.Bottom.Lateral			L.Thigh.Bottom.Medial			L.Thigh.Top.Lateral			L.Thigh.Top.Medial			R.ASIS			R.ASY			R.Heel.Bottom			R.Heel.Lateral			R.Heel.Top			R.Iliac.Crest			R.MT1			R.MT5			R.PSIS			R.Shank.Bottom.Lateral			R.Shank.Bottom.Medial			R.Shank.Top.Lateral			R.Shank.Top.Medial			R.Thigh.Bottom.Lateral			R.Thigh.Bottom.Medial			R.Thigh.Top.Lateral			R.Thigh.Top.Medial			
		X1	Y1	Z1	X2	Y2	Z2	X3	Y3	Z3	X4	Y4	Z4	X5	Y5	Z5	X6	Y6	Z6	X7	Y7	Z7	X8	Y8	Z8	X9	Y9	Z9	X10	Y10	Z10	X11	Y11	Z11	X12	Y12	Z12	X13	Y13	Z13	X14	Y14	Z14	X15	Y15	Z15	X16	Y16	Z16	X17	Y17	Z17	X18	Y18	Z18	X19	Y19	Z19	X20	Y20	Z20	X21	Y21	Z21	X22	Y22	Z22	X23	Y23	Z23	X24	Y24	Z24	X25	Y25	Z25	X26	Y26	Z26	X27	Y27	Z27	X28	Y28	Z28	X29	Y29	Z29	X30	Y30	Z30	X31	Y31	Z31	X32	Y32	Z32	X33	Y33	Z33	

1688	11.24666666666667	2257.312648940859	1020.064693279444	899.5210797737856	2225.686486600158	25.87012131685667	965.805077149207	2246.85254598944	47.29188360423618	920.9206799987851	2233.542997450785	73.2678130709071	964.4822257570351	2195.086643143169	1061.167980271591	862.6466844198306	2446.257231206537	55.55529747483403	983.2349186820001	2404.386208357354	41.15866652239115	879.6204596457245	2097.59592292669	1044.174869542213	966.2855228618678	2302.032734990736	164.4189877607735	893.1558351704913	2259.99696021912	171.4155207742622	928.563135777247	2298.039317221993	242.7269430609179	874.6061079323293	2258.506200969722	250.4536185308779	910.5571934009582	2279.704686957883	676.3086633738327	835.6001210874514	2218.890849181676	651.8412734252259	867.0699924508178	2233.234342436367	774.9955925835607	823.901537231167	2176.532999633238	752.7634767137524	857.2472521887241	2261.018279496505	990.9252285656348	1127.482080703302	1813.758337451934	170.0632151779143	1093.043001406793	1709.033982180158	328.5722928993757	1045.437477253992	1724.648803593827	314.4768469038923	1095.09002896283	1751.41008907398	333.9843560001749	1051.557397700849	2217.712725764549	1047.451074705278	1157.444106784404	1790.570091164331	130.5746343355572	1047.101188694258	1756.409213736543	160.0819243188062	1146.898742986895	2102.960856420546	1038.939537560294	1064.931297366259	1866.238858346891	328.766586594379	1128.510497681266	1852.939836286436	364.0492162257756	1093.7245361516	1937.548451371898	372.4556908664681	1143.035257101192	1918.715702131601	408.6720940288212	1108.77455135806	2153.496431300022	607.679665495284	1164.510697718554	2101.843740904266	607.4194744271229	1114.918338288177	2142.09929734097	717.1928334990263	1173.815643289852	2092.990302439255	716.4032447127103	1126.362215027274	
1689	11.25333333333333	2255.487241010399	1015.754555613577	898.8613301219248	2208.776092391157	26.4101007655537	965.696369244598	2230.373719961925	47.76601356561171	920.9422065906788	2217.512324944999	73.73709821174357	964.6803701952589	2193.116428578185	1055.684628648798	862.4971789621665	2430.300609263812	52.53267170367914	983.6028560409077	2388.124301162642	39.76413171051234	879.6368105221791	2095.46020766479	1038.055089710593	967.0397362544766	2290.992814783294	163.0777383977949	893.67252080751	2248.651768984632	171.9149963712055	928.3015594604099	2290.370982634229	241.4218998657254	874.7250848341864	2250.688459857126	250.8842925473912	910.0504049701115	2280.276341530554	673.1936232320985	835.1211502318456	2219.485360284099	648.028479251253	866.163599265427	2232.899117687039	771.4757150181828	823.5291856598308	2176.314330555702	748.6571935835518	856.6547850130212	2260.162925361871	985.9923255595613	1127.437722894191	1820.367690905972	173.4968624388022	1093.72559782229	1717.383103851095	332.8144235067127	1044.724217854836	1732.972400721899	319.1816332720547	1094.478544230308	1759.842046878276	337.7339656277467	1050.575164774316	2216.558623543657	1041.33846021157	1158.008497741078	1796.779753493851	133.961279377911	1048.127666112344	1763.277859782389	164.9529297415776	1147.763010669268	2101.259155594988	1032.2004239575	1065.299754138954	1875.059481137615	331.0238777024194	1127.87271946679	1862.906749561373	366.2990016536764	1092.634845708353	1947.449500428694	372.9012885691016	1142.301028580073	1929.831266706208	409.2396600792809	1107.4807689547	2161.31126942774	601.3744692373044	1164.2183623206	2109.904743890425	599.5556447394173	1114.371443275091	2146.892706085489	710.5411921828168	1173.240964724362	2098.037261164821	708.2966696100981	1125.554079677352	
1690	11.26	2253.549715864467	1011.533220312043	898.2599798290724	2191.804314403624	26.9503362868678	965.5182536059954	2213.723453123507	48.30778132515543	920.8590618224556	2201.18860426264	74.21948708694873	964.7610618808362	2190.837146785256	1050.150739708838	862.3681413863204	2414.01184098647	50.5500081405793	983.8091064499148	2371.625914191903	39.04066198590532	879.6014817934258	2093.119987967053	1031.970034416968	967.8102517123061	2279.526106007458	162.122599909804	894.1229194623671	2236.967684497426	172.8036531159554	927.9937674790243	2282.307917375308	240.3928855176141	874.84458175042	2242.553568042827	251.5887451130843	909.5521816110894	2280.541831229813	670.1170337255372	834.5847568213253	2219.805049867819	644.3349105279558	865.3105624770199	2232.364908894964	768.0425255255554	823.1382472474772	2175.896734863377	744.6957903386643	856.0989601720886	2259.035802465743	981.1696386070018	1127.515613218662	1828.320195338543	176.5117685931499	1094.241721169945	1726.452298734134	336.4469108202105	1044.613651403287	1742.272694809062	323.2037761793027	1094.366264437379	1768.972790697856	340.9877161840114	1050.048128564559	2214.992305287877	1035.195539661984	1158.623194081668	1804.229812202481	136.961326105873	1048.984363916048	1771.74283798873	169.1104401385966	1148.630894058776	2099.284831528056	1025.49384071737	1065.651111151957	1884.827210254503	332.8972745992996	1127.353742434724	1873.6291403516	368.2032727996908	1091.80100086136	1958.172342230127	373.1102872292357	1141.636281900414	1941.587026636911	409.5808674199322	1106.409452956143	2169.302107215139	595.5318477539519	1163.812747444121	2118.139765358996	592.1585688809773	1113.784442678019	2151.821402803404	704.2666134286683	1172.607829412496	2103.206484346145	700.560265526229	1124.752114765891	
1691	11.26666666666667	2251.563903837954	1007.475217079733	897.7140756530831	2174.910358208619	27.4511950941098	965.3052167975693	2197.040928270269	48.86460818985017	920.7032863826801	2184.732356666117	74.67730292035468	964.7562573510003	2188.280324871504	1044.66627481304	862.268351875461	2397.547776081343	49.47119457475537	983.8391261045336	2355.016086366119	38.85096191286819	879.5122289412483	2090.652741008427	1026.050766998013	968.5808283462591	2267.646694083723	161.4388566495876	894.5024920048546	2224.983687633503	173.9223731781707	927.6748490381168	2273.780203506647	239.5228565714351	874.9756593066086	2234.044320345255	252.4083686528402	909.1009869429449	2280.357418373412	667.0508173464788	834.0504136156987	2219.678923500681	640.7910286274176	864.5630414576203	2231.572941266835	764.7081021233233	822.7651997435199	2175.200786467649	740.9460462214888	855.6203618333767	2257.657854125526	976.5407526610984	1127.707078961951	1837.567980382366	179.0651039223686	1094.570254695937	1736.143874814175	339.4134324995931	1045.10655379453	1752.441798208534	326.4677132159003	1094.754104884825	1778.697774454522	343.7121304556866	1049.994405725195	2212.995444251767	1029.132965621541	1159.277389433297	1812.893932347824	139.5264902921297	1049.646052600986	1781.729034968596	172.4655175803925	1149.477835299346	2097.100893079142	1018.958229495582	1065.992106709922	1895.454824487381	334.3612114125642	1126.964735848594	1885.002064621747	369.7549716593904	1091.24826790343	1969.621693222913	373.0936051989485	1141.059100573958	1953.867447653728	409.724791543399	1105.59313397457	2177.438210194531	590.2443755308686	1163.300630823671	2126.514226113436	585.3192155719182	1113.168092644867	2156.868395674742	698.4543913835976	1171.92730176961	2108.472574250495	693.2794254829751	1123.978118931277	
1692	11.27333333333333	2249.595746131557	1003.641618591038	897.2247269360954	2158.160533328951	27.88750073912118	965.0893313948994	2180.403626493114	49.39544397808202	920.508511988927	2168.246013538877	75.08648649762874	964.6993747980506	2185.516159020905	1039.340171742391	862.2048687900352	2381.011815306127	49.09595174115665	983.7035002708149	2338.369427664208	39.033209366637	879.3755511985401	2088.151694503725	1020.439335677446	969.3257909080711	2255.350324221975	160.9056080898475	894.816229386581	2212.708800328788	175.1128700570301	927.38098838746	2264.712979462471	238.6967493266574	875.1312061985483	2225.088395810899	253.1934598394338	908.7303178178679	2279.599335744172	663.9677058317757	833.5710236598778	2218.953814581466	637.4181692702459	863.9564244604402	2230.473691121579	761.4806444465256	822.4433006899433	2174.156442189855	737.4631338347708	855.2500360569206	2256.067786919015	972.1852504988682	1127.99543999136	1848.048985267829	181.1232291447644	1094.699565138451	1746.356003843088	341.6444026645504	1046.174625451552	1763.357948351369	328.8987310760935	1095.617149592171	1788.907601433993	345.863676540814	1050.408719125688	2210.584740656921	1023.270317703355	1159.956616016952	1822.743253020038	141.6089115398271	1050.099150635465	1793.143513111433	174.9506815408489	1150.280427963912	2094.786796321631	1012.745951110749	1066.322482131692	1906.835537531389	335.4002554749271	1126.709707391373	1896.909706548977	370.9470886785409	1090.98323432704	1981.683275356593	372.8720176944971	1140.580889216357	1966.545054293553	409.7016477632519	1105.046202524698	2185.679945309756	585.5895371706587	1162.691102092236	2134.986570683963	579.1121764658361	1112.531194702597	2162.005542629838	693.1767760950194	1171.210335460153	2113.805385182031	686.5257648584974	1123.246412992381	
